<mxfile host="app.diagrams.net" modified="2023-10-31T10:12:49.309Z" agent="Mozilla/5.0 (Windows NT 10.0; Win64; x64) AppleWebKit/537.36 (KHTML, like Gecko) Chrome/118.0.0.0 Safari/537.36 Edg/118.0.2088.76" etag="oEpDc-ydqLzQ0YVKQoap" version="22.0.8" type="github">
  <diagram name="Page-1" id="7e0a89b8-554c-2b80-1dc8-d5c74ca68de4">
    <mxGraphModel dx="2380" dy="1121" grid="1" gridSize="10" guides="1" tooltips="1" connect="1" arrows="1" fold="1" page="1" pageScale="1" pageWidth="1100" pageHeight="850" background="none" math="0" shadow="0">
      <root>
        <mxCell id="0" />
        <mxCell id="1" parent="0" />
        <mxCell id="E2WN5ak8Cf_rjjWAEGz9-27" style="edgeStyle=orthogonalEdgeStyle;rounded=0;orthogonalLoop=1;jettySize=auto;html=1;entryX=0.5;entryY=0;entryDx=0;entryDy=0;" edge="1" parent="1" source="E2WN5ak8Cf_rjjWAEGz9-2" target="E2WN5ak8Cf_rjjWAEGz9-26">
          <mxGeometry relative="1" as="geometry" />
        </mxCell>
        <mxCell id="E2WN5ak8Cf_rjjWAEGz9-39" style="edgeStyle=orthogonalEdgeStyle;rounded=0;orthogonalLoop=1;jettySize=auto;html=1;" edge="1" parent="1" source="E2WN5ak8Cf_rjjWAEGz9-2" target="E2WN5ak8Cf_rjjWAEGz9-33">
          <mxGeometry relative="1" as="geometry">
            <Array as="points">
              <mxPoint x="180" y="70" />
              <mxPoint x="750" y="70" />
            </Array>
          </mxGeometry>
        </mxCell>
        <mxCell id="E2WN5ak8Cf_rjjWAEGz9-2" value="12V Lead Acid&amp;nbsp;&lt;br&gt;Battery" style="rounded=0;whiteSpace=wrap;html=1;" vertex="1" parent="1">
          <mxGeometry x="120" y="120" width="120" height="80" as="geometry" />
        </mxCell>
        <mxCell id="E2WN5ak8Cf_rjjWAEGz9-3" value="9V Battery&lt;br&gt;(For Backup)" style="rounded=0;whiteSpace=wrap;html=1;" vertex="1" parent="1">
          <mxGeometry x="360" y="120" width="120" height="80" as="geometry" />
        </mxCell>
        <mxCell id="E2WN5ak8Cf_rjjWAEGz9-23" style="edgeStyle=orthogonalEdgeStyle;rounded=0;orthogonalLoop=1;jettySize=auto;html=1;entryX=0.5;entryY=0;entryDx=0;entryDy=0;" edge="1" parent="1" source="E2WN5ak8Cf_rjjWAEGz9-4" target="E2WN5ak8Cf_rjjWAEGz9-22">
          <mxGeometry relative="1" as="geometry" />
        </mxCell>
        <mxCell id="E2WN5ak8Cf_rjjWAEGz9-4" value="Relay Trigger Circuit for Switching Power Sources" style="rounded=0;whiteSpace=wrap;html=1;" vertex="1" parent="1">
          <mxGeometry x="240" y="280" width="120" height="80" as="geometry" />
        </mxCell>
        <mxCell id="E2WN5ak8Cf_rjjWAEGz9-11" style="edgeStyle=orthogonalEdgeStyle;rounded=0;orthogonalLoop=1;jettySize=auto;html=1;entryX=0.25;entryY=0;entryDx=0;entryDy=0;" edge="1" parent="1" source="E2WN5ak8Cf_rjjWAEGz9-2" target="E2WN5ak8Cf_rjjWAEGz9-4">
          <mxGeometry relative="1" as="geometry" />
        </mxCell>
        <mxCell id="E2WN5ak8Cf_rjjWAEGz9-12" style="edgeStyle=orthogonalEdgeStyle;rounded=0;orthogonalLoop=1;jettySize=auto;html=1;entryX=0.75;entryY=0;entryDx=0;entryDy=0;" edge="1" parent="1" source="E2WN5ak8Cf_rjjWAEGz9-3" target="E2WN5ak8Cf_rjjWAEGz9-4">
          <mxGeometry relative="1" as="geometry" />
        </mxCell>
        <mxCell id="E2WN5ak8Cf_rjjWAEGz9-14" style="edgeStyle=orthogonalEdgeStyle;rounded=0;orthogonalLoop=1;jettySize=auto;html=1;entryX=1;entryY=0.5;entryDx=0;entryDy=0;" edge="1" parent="1" source="E2WN5ak8Cf_rjjWAEGz9-13" target="E2WN5ak8Cf_rjjWAEGz9-4">
          <mxGeometry relative="1" as="geometry" />
        </mxCell>
        <mxCell id="E2WN5ak8Cf_rjjWAEGz9-57" style="edgeStyle=orthogonalEdgeStyle;rounded=0;orthogonalLoop=1;jettySize=auto;html=1;" edge="1" parent="1" source="E2WN5ak8Cf_rjjWAEGz9-13" target="E2WN5ak8Cf_rjjWAEGz9-52">
          <mxGeometry relative="1" as="geometry">
            <Array as="points">
              <mxPoint x="780" y="380" />
              <mxPoint x="700" y="380" />
            </Array>
          </mxGeometry>
        </mxCell>
        <mxCell id="E2WN5ak8Cf_rjjWAEGz9-13" value="Microcontroller&lt;br&gt;(Ardunio Nano)" style="rounded=0;whiteSpace=wrap;html=1;" vertex="1" parent="1">
          <mxGeometry x="760" y="280" width="120" height="80" as="geometry" />
        </mxCell>
        <mxCell id="E2WN5ak8Cf_rjjWAEGz9-16" value="&lt;span style=&quot;color: rgb(0, 0, 0); font-family: Helvetica; font-size: 12px; font-style: normal; font-variant-ligatures: normal; font-variant-caps: normal; font-weight: 400; letter-spacing: normal; orphans: 2; text-align: left; text-indent: 0px; text-transform: none; widows: 2; word-spacing: 0px; -webkit-text-stroke-width: 0px; background-color: rgb(251, 251, 251); text-decoration-thickness: initial; text-decoration-style: initial; text-decoration-color: initial; float: none; display: inline !important;&quot;&gt;If the lead acid battery&#39;s occupancy rate drops to 30%&lt;/span&gt;&lt;br style=&quot;border-color: var(--border-color); color: rgb(0, 0, 0); font-family: Helvetica; font-size: 12px; font-style: normal; font-variant-ligatures: normal; font-variant-caps: normal; font-weight: 400; letter-spacing: normal; orphans: 2; text-align: left; text-indent: 0px; text-transform: none; widows: 2; word-spacing: 0px; -webkit-text-stroke-width: 0px; background-color: rgb(251, 251, 251); text-decoration-thickness: initial; text-decoration-style: initial; text-decoration-color: initial;&quot;&gt;&lt;span style=&quot;color: rgb(0, 0, 0); font-family: Helvetica; font-size: 12px; font-style: normal; font-variant-ligatures: normal; font-variant-caps: normal; font-weight: 400; letter-spacing: normal; orphans: 2; text-align: left; text-indent: 0px; text-transform: none; widows: 2; word-spacing: 0px; -webkit-text-stroke-width: 0px; background-color: rgb(251, 251, 251); text-decoration-thickness: initial; text-decoration-style: initial; text-decoration-color: initial; float: none; display: inline !important;&quot;&gt;&amp;nbsp;or rises above, it triggers the relays&lt;/span&gt;" style="text;whiteSpace=wrap;html=1;" vertex="1" parent="1">
          <mxGeometry x="420" y="320" width="320" height="50" as="geometry" />
        </mxCell>
        <mxCell id="E2WN5ak8Cf_rjjWAEGz9-25" style="edgeStyle=orthogonalEdgeStyle;rounded=0;orthogonalLoop=1;jettySize=auto;html=1;entryX=0;entryY=0.5;entryDx=0;entryDy=0;" edge="1" parent="1" source="E2WN5ak8Cf_rjjWAEGz9-22" target="E2WN5ak8Cf_rjjWAEGz9-24">
          <mxGeometry relative="1" as="geometry" />
        </mxCell>
        <mxCell id="E2WN5ak8Cf_rjjWAEGz9-22" value="9-12V to 5V Regulator" style="rounded=0;whiteSpace=wrap;html=1;" vertex="1" parent="1">
          <mxGeometry x="240" y="400" width="120" height="80" as="geometry" />
        </mxCell>
        <mxCell id="E2WN5ak8Cf_rjjWAEGz9-24" value="5V to 3V&lt;br&gt;&amp;nbsp;Regulator" style="rounded=0;whiteSpace=wrap;html=1;" vertex="1" parent="1">
          <mxGeometry x="440" y="400" width="120" height="80" as="geometry" />
        </mxCell>
        <mxCell id="E2WN5ak8Cf_rjjWAEGz9-26" value="Load" style="rounded=0;whiteSpace=wrap;html=1;" vertex="1" parent="1">
          <mxGeometry x="120" y="560" width="120" height="80" as="geometry" />
        </mxCell>
        <mxCell id="E2WN5ak8Cf_rjjWAEGz9-43" style="edgeStyle=orthogonalEdgeStyle;rounded=0;orthogonalLoop=1;jettySize=auto;html=1;entryX=0.25;entryY=0;entryDx=0;entryDy=0;" edge="1" parent="1" source="E2WN5ak8Cf_rjjWAEGz9-33" target="E2WN5ak8Cf_rjjWAEGz9-13">
          <mxGeometry relative="1" as="geometry" />
        </mxCell>
        <mxCell id="E2WN5ak8Cf_rjjWAEGz9-33" value="Voltage Measurment" style="rounded=0;whiteSpace=wrap;html=1;" vertex="1" parent="1">
          <mxGeometry x="690" y="120" width="120" height="80" as="geometry" />
        </mxCell>
        <mxCell id="E2WN5ak8Cf_rjjWAEGz9-44" style="edgeStyle=orthogonalEdgeStyle;rounded=0;orthogonalLoop=1;jettySize=auto;html=1;entryX=0.75;entryY=0;entryDx=0;entryDy=0;" edge="1" parent="1" source="E2WN5ak8Cf_rjjWAEGz9-34" target="E2WN5ak8Cf_rjjWAEGz9-13">
          <mxGeometry relative="1" as="geometry" />
        </mxCell>
        <mxCell id="E2WN5ak8Cf_rjjWAEGz9-34" value="Temperature Measurment" style="rounded=0;whiteSpace=wrap;html=1;" vertex="1" parent="1">
          <mxGeometry x="830" y="120" width="120" height="80" as="geometry" />
        </mxCell>
        <mxCell id="E2WN5ak8Cf_rjjWAEGz9-51" style="edgeStyle=orthogonalEdgeStyle;rounded=0;orthogonalLoop=1;jettySize=auto;html=1;" edge="1" parent="1" source="E2WN5ak8Cf_rjjWAEGz9-35">
          <mxGeometry relative="1" as="geometry">
            <mxPoint x="820" y="370" as="targetPoint" />
          </mxGeometry>
        </mxCell>
        <mxCell id="E2WN5ak8Cf_rjjWAEGz9-35" value="Current Measurment" style="rounded=0;whiteSpace=wrap;html=1;" vertex="1" parent="1">
          <mxGeometry x="300" y="560" width="120" height="80" as="geometry" />
        </mxCell>
        <mxCell id="E2WN5ak8Cf_rjjWAEGz9-40" value="" style="edgeStyle=none;orthogonalLoop=1;jettySize=auto;html=1;rounded=0;entryX=0.5;entryY=0;entryDx=0;entryDy=0;" edge="1" parent="1" target="E2WN5ak8Cf_rjjWAEGz9-34">
          <mxGeometry width="80" relative="1" as="geometry">
            <mxPoint x="890" y="70" as="sourcePoint" />
            <mxPoint x="925" y="90" as="targetPoint" />
            <Array as="points" />
          </mxGeometry>
        </mxCell>
        <mxCell id="E2WN5ak8Cf_rjjWAEGz9-41" value="" style="endArrow=none;html=1;rounded=0;" edge="1" parent="1">
          <mxGeometry width="50" height="50" relative="1" as="geometry">
            <mxPoint x="750" y="70" as="sourcePoint" />
            <mxPoint x="890" y="70" as="targetPoint" />
          </mxGeometry>
        </mxCell>
        <mxCell id="E2WN5ak8Cf_rjjWAEGz9-46" value="" style="endArrow=none;html=1;rounded=0;" edge="1" parent="1">
          <mxGeometry width="50" height="50" relative="1" as="geometry">
            <mxPoint x="180" y="510" as="sourcePoint" />
            <mxPoint x="360" y="510" as="targetPoint" />
          </mxGeometry>
        </mxCell>
        <mxCell id="E2WN5ak8Cf_rjjWAEGz9-47" value="" style="endArrow=classic;html=1;rounded=0;entryX=0.5;entryY=0;entryDx=0;entryDy=0;" edge="1" parent="1" target="E2WN5ak8Cf_rjjWAEGz9-35">
          <mxGeometry width="50" height="50" relative="1" as="geometry">
            <mxPoint x="360" y="510" as="sourcePoint" />
            <mxPoint x="390" y="450" as="targetPoint" />
          </mxGeometry>
        </mxCell>
        <mxCell id="E2WN5ak8Cf_rjjWAEGz9-49" value="Bluetooth Module" style="rounded=0;whiteSpace=wrap;html=1;" vertex="1" parent="1">
          <mxGeometry x="920" y="410" width="120" height="80" as="geometry" />
        </mxCell>
        <mxCell id="E2WN5ak8Cf_rjjWAEGz9-52" value="SD Card Module" style="rounded=0;whiteSpace=wrap;html=1;" vertex="1" parent="1">
          <mxGeometry x="640" y="400" width="120" height="80" as="geometry" />
        </mxCell>
        <mxCell id="E2WN5ak8Cf_rjjWAEGz9-53" value="Mobile Phone&lt;br&gt;(User Interfarace)" style="rounded=0;whiteSpace=wrap;html=1;" vertex="1" parent="1">
          <mxGeometry x="920" y="530" width="120" height="80" as="geometry" />
        </mxCell>
        <mxCell id="E2WN5ak8Cf_rjjWAEGz9-54" value="OLED Display" style="rounded=0;whiteSpace=wrap;html=1;" vertex="1" parent="1">
          <mxGeometry x="920" y="650" width="120" height="80" as="geometry" />
        </mxCell>
        <mxCell id="E2WN5ak8Cf_rjjWAEGz9-59" value="&lt;span style=&quot;color: rgb(0, 0, 0); font-family: Helvetica; font-size: 12px; font-style: normal; font-variant-ligatures: normal; font-variant-caps: normal; font-weight: 400; letter-spacing: normal; orphans: 2; text-align: left; text-indent: 0px; text-transform: none; widows: 2; word-spacing: 0px; -webkit-text-stroke-width: 0px; background-color: rgb(251, 251, 251); text-decoration-thickness: initial; text-decoration-style: initial; text-decoration-color: initial; float: none; display: inline !important;&quot;&gt;If the lead acid battery&#39;s occupancy rate drops to 30%&lt;/span&gt;&lt;br style=&quot;border-color: var(--border-color); color: rgb(0, 0, 0); font-family: Helvetica; font-size: 12px; font-style: normal; font-variant-ligatures: normal; font-variant-caps: normal; font-weight: 400; letter-spacing: normal; orphans: 2; text-align: left; text-indent: 0px; text-transform: none; widows: 2; word-spacing: 0px; -webkit-text-stroke-width: 0px; background-color: rgb(251, 251, 251); text-decoration-thickness: initial; text-decoration-style: initial; text-decoration-color: initial;&quot;&gt;&lt;span style=&quot;color: rgb(0, 0, 0); font-family: Helvetica; font-size: 12px; font-style: normal; font-variant-ligatures: normal; font-variant-caps: normal; font-weight: 400; letter-spacing: normal; orphans: 2; text-align: left; text-indent: 0px; text-transform: none; widows: 2; word-spacing: 0px; -webkit-text-stroke-width: 0px; background-color: rgb(251, 251, 251); text-decoration-thickness: initial; text-decoration-style: initial; text-decoration-color: initial; float: none; display: inline !important;&quot;&gt;&amp;nbsp;or rises above, it triggers the relays&lt;/span&gt;" style="text;whiteSpace=wrap;html=1;" vertex="1" parent="1">
          <mxGeometry x="1170" y="160" width="320" height="50" as="geometry" />
        </mxCell>
      </root>
    </mxGraphModel>
  </diagram>
</mxfile>
